<?xml version="1.0" standalone="no"?>
<!DOCTYPE svg PUBLIC "-//W3C//DTD SVG 20010904//EN"
 "http://www.w3.org/TR/2001/REC-SVG-20010904/DTD/svg10.dtd">
<svg version="1.0" xmlns="http://www.w3.org/2000/svg"
 width="400" height="400" viewBox="0 0 400 400"
 preserveAspectRatio="xMidYMid meet">

 <circle cx="50%" cy="50%" r="200" fill="#ffffff" />

<g transform="translate(50.000000,380.000000) scale(0.100000,-0.100000)"
fill="#000000" stroke="none">

<path d="M470 2024 l0 -1396 142 -259 143 -259 785 0 786 0 127 265 127 265
-2 838 -3 837 -100 53 c-231 122 -483 252 -489 252 -3 0 -6 -130 -6 -290 0
-159 -3 -290 -6 -290 -4 0 -115 56 -246 125 -131 69 -241 125 -243 125 -3 0
-5 -56 -5 -125 0 -71 -4 -125 -9 -125 -5 0 -99 47 -208 104 l-198 105 -3 433
-2 434 -103 51 c-56 29 -189 97 -294 153 l-193 101 0 -1397z m498 131 l2 -905
-205 0 -205 0 0 1010 0 1011 203 -105 202 -105 3 -906z m1311 213 c108 -56
199 -105 202 -110 3 -4 6 -348 7 -762 1 -616 -1 -756 -12 -765 -9 -8 -77 -11
-207 -9 l-194 3 -3 873 c-1 479 1 872 4 872 4 0 95 -46 203 -102z m-1003 -334
l204 -105 0 -340 0 -339 -210 0 -210 0 0 445 c0 245 3 445 6 445 4 0 98 -48
210 -106z m504 2 l195 -103 3 -342 2 -341 -205 0 -205 0 0 445 c0 245 3 445 8
445 4 -1 95 -47 202 -104z m-1030 -1031 l0 -55 55 0 55 0 0 -35 0 -35 -90 0
-90 0 0 90 0 90 35 0 35 0 0 -55z m500 0 l0 -55 55 0 55 0 0 -35 0 -35 -90 0
-90 0 0 90 0 90 35 0 35 0 0 -55z m510 0 l0 -54 58 -3 c56 -3 57 -3 60 -35 l3
-33 -95 0 -96 0 0 90 0 90 35 0 35 0 0 -55z m686 -427 c-96 -215 -161 -355
-169 -366 -8 -9 -162 -12 -735 -10 l-726 3 -99 170 c-54 94 -110 189 -123 213
l-25 42 950 0 951 0 -24 -52z"/>
<path d="M680 2685 l0 -85 91 0 90 0 -3 28 c-3 26 -6 27 -60 30 l-58 3 0 54
c0 54 0 55 -30 55 l-30 0 0 -85z"/>
<path d="M682 2148 l3 -83 88 -3 87 -3 0 31 0 30 -60 0 -60 0 0 55 c0 55 0 55
-30 55 l-31 0 3 -82z"/>
<path d="M684 1687 c-3 -8 -4 -47 -2 -88 l3 -74 88 -3 87 -3 0 31 0 30 -60 0
-60 0 0 60 c0 58 -1 60 -25 60 -14 0 -28 -6 -31 -13z"/>
<path d="M2200 2095 l0 -85 90 0 c89 0 90 0 90 25 0 22 -4 24 -57 27 l-58 3
-3 58 c-3 56 -4 57 -32 57 l-30 0 0 -85z"/>
<path d="M2200 1555 l0 -85 90 0 90 0 0 30 0 30 -60 0 -60 0 0 55 c0 54 0 55
-30 55 l-30 0 0 -85z"/>
<path d="M2200 1020 l0 -90 90 0 90 0 0 30 0 30 -60 0 -60 0 0 60 0 60 -30 0
-30 0 0 -90z"/>
<path d="M1182 1613 l3 -88 88 -3 87 -3 0 31 0 30 -60 0 -60 0 0 60 0 60 -30
0 -31 0 3 -87z"/>
<path d="M1700 1610 l0 -90 85 0 85 0 0 30 c0 28 -1 29 -57 32 l-58 3 -3 58
c-3 53 -5 57 -27 57 -25 0 -25 -1 -25 -90z"/>
<path d="M2191 2867 c-6 -16 -25 -34 -43 -42 -25 -11 -28 -14 -12 -15 22 0 54
-29 54 -48 0 -20 17 -13 23 9 3 11 19 25 35 31 l30 12 -31 15 c-18 9 -34 27
-38 41 l-6 25 -12 -28z"/>
<path d="M1426 2709 c-8 -50 -44 -85 -100 -97 l-41 -8 48 -13 c54 -15 83 -46
93 -97 7 -37 24 -37 24 1 0 36 46 83 93 96 l42 11 -43 13 c-58 18 -78 37 -91
91 -6 24 -13 44 -15 44 -2 0 -6 -18 -10 -41z"/>
<path d="M220 1754 c0 -22 -22 -46 -55 -59 -19 -7 -18 -8 5 -14 14 -4 32 -20
40 -37 l16 -30 14 30 c9 17 26 33 40 37 l25 6 -28 12 c-16 6 -34 25 -42 43
-11 25 -14 28 -15 12z"/>
<path d="M2778 1300 c-9 -16 -29 -32 -44 -36 l-26 -7 31 -13 c18 -7 36 -25 42
-41 l12 -28 6 25 c4 14 20 32 37 40 l30 16 -30 14 c-17 8 -33 25 -36 37 -5 22
-6 22 -22 -7z"/>
</g>
</svg>
